<?xml version="1.0" standalone="no"?><!DOCTYPE svg PUBLIC "-//W3C//DTD SVG 1.1//EN" "http://www.w3.org/Graphics/SVG/1.1/DTD/svg11.dtd"><svg t="1646062735464" class="icon" viewBox="0 0 1024 1024" version="1.1" xmlns="http://www.w3.org/2000/svg" p-id="2830" xmlns:xlink="http://www.w3.org/1999/xlink" width="200" height="200"><defs><style type="text/css"></style></defs><path d="M5.9392 508.2112Q5.9392 256 5.8368 4.8128C5.8368 1.1264 6.656 0 10.24 0h1005.9776c3.6864 0 4.5056 0.8192 4.5056 4.5056v1006.7968c0 3.6864-0.8192 4.5056-4.5056 4.5056H10.24c-3.6864 0-4.5056-0.8192-4.5056-4.5056q0.3072-251.392 0.2048-503.0912z" fill="#FEFEFE" p-id="2831"></path><path d="M379.8016 283.4432a358.4 358.4 0 0 1 282.3168 12.9024 378.88 378.88 0 0 1 81.92 54.0672 25.2928 25.2928 0 0 1 8.9088 6.656c7.0656 6.8608 14.2336 13.6192 20.48 20.992a7.68 7.68 0 0 1 1.2288 3.584 25.9072 25.9072 0 0 0 2.048 7.5776 98.2016 98.2016 0 0 1 6.656 32.1536 241.2544 241.2544 0 0 1-29.0816 133.12 9.0112 9.0112 0 0 1-4.608 5.0176c-3.072 0-3.584-2.56-4.4032-4.608a198.0416 198.0416 0 0 0-44.7488-64.6144A261.5296 261.5296 0 0 0 603.0336 430.08a269.824 269.824 0 0 0-69.9392-14.7456 280.064 280.064 0 0 0-100.5568 10.24A272.7936 272.7936 0 0 0 343.2448 471.04a216.1664 216.1664 0 0 0-61.44 73.4208 159.9488 159.9488 0 0 0-17.2032 60.416 172.9536 172.9536 0 0 0 3.9936 45.9776 15.9744 15.9744 0 0 1-2.56 6.8608 355.5328 355.5328 0 0 0-24.3712 63.2832c-0.8192 2.56-1.024 5.5296-3.6864 7.2704s-3.2768-1.2288-4.608-2.4576a220.4672 220.4672 0 0 1-64.8192-105.2672 145.2032 145.2032 0 0 1-6.144-39.3216 22.9376 22.9376 0 0 0-0.9216-5.8368 198.2464 198.2464 0 0 1 1.024-35.6352 293.888 293.888 0 0 1 8.6016-42.0864 286.72 286.72 0 0 1 14.336-38.5024c0.9216-1.9456 1.9456-3.8912 3.072-5.8368a274.432 274.432 0 0 1 28.672-47.4112 314.4704 314.4704 0 0 1 27.0336-32.768 451.9936 451.9936 0 0 1 36.1472-33.792 390.2464 390.2464 0 0 1 69.5296-44.1344c8.3968-4.096 17.1008-7.7824 25.8048-11.264a7.5776 7.5776 0 0 1 4.096-0.512z" fill="#FA665A" p-id="2832"></path><path d="M168.1408 227.84c9.1136-10.24 17.92-20.48 27.5456-30.72s18.8416-17.92 28.5696-26.4192a419.84 419.84 0 0 1 48.5376-36.0448c7.3728-4.8128 14.9504-9.216 22.528-13.6192 9.6256-5.632 19.8656-10.24 29.696-15.36A336.1792 336.1792 0 0 1 357.2736 92.16a379.6992 379.6992 0 0 1 53.9648-16.1792 491.52 491.52 0 0 1 51.2-8.704 378.88 378.88 0 0 1 61.44-2.7648 473.7024 473.7024 0 0 1 57.6512 5.3248c16.7936 2.7648 33.4848 6.3488 49.9712 10.24 11.8784 3.072 23.3472 7.3728 34.9184 11.5712a394.5472 394.5472 0 0 1 43.1104 18.6368c13.7216 6.9632 27.0336 14.4384 40.0384 22.7328a477.2864 477.2864 0 0 1 63.2832 48.9472 447.2832 447.2832 0 0 1 63.3856 72.6016c4.096 5.7344 7.4752 11.8784 11.776 17.5104 1.4336 1.9456 0.9216 3.072-1.1264 3.584a52.0192 52.0192 0 0 0-19.6608 10.24c-1.9456 1.536-2.2528 0.6144-2.7648-1.2288a84.6848 84.6848 0 0 0-25.3952-40.96 89.1904 89.1904 0 0 0-42.7008-21.2992 92.16 92.16 0 0 0-53.5552 5.0176 55.0912 55.0912 0 0 0-6.8608 3.7888c-2.1504 1.2288-3.3792 1.1264-4.3008-1.536a101.1712 101.1712 0 0 0-16.9984-30.72 118.8864 118.8864 0 0 0-35.4304-30.0032 124.7232 124.7232 0 0 0-124.416 1.024 112.64 112.64 0 0 0-44.6464 46.592c-1.7408 3.584-2.6624 9.728-5.8368 10.24a25.2928 25.2928 0 0 1-13.9264-3.7888 77.1072 77.1072 0 0 0-68.7104-2.56c-5.4272-6.0416-9.1136-13.2096-14.4384-19.3536a106.5984 106.5984 0 0 0-64.4096-36.4544 110.8992 110.8992 0 0 0-121.856 66.56c-0.7168 1.6384-1.2288 3.3792-2.048 5.0176-1.9456 4.1984-3.072 4.8128-7.2704 2.6624a87.8592 87.8592 0 0 0-39.0144-9.3184c-1.9456 0.4096-4.1984 0.9216-4.5056-1.7408z" fill="#D1F1FE" p-id="2833"></path><path d="M168.1408 227.84a43.2128 43.2128 0 0 0 14.4384 1.536 87.2448 87.2448 0 0 1 29.3888 9.0112c2.2528 1.1264 3.8912 2.048 5.12-1.536a112.64 112.64 0 0 1 25.8048-40.96 106.0864 106.0864 0 0 1 24.064-18.5344 107.3152 107.3152 0 0 1 55.3984-14.9504 110.592 110.592 0 0 1 73.216 26.5216A133.12 133.12 0 0 1 419.84 216.4736a10.24 10.24 0 0 1 2.048 4.4032A71.68 71.68 0 0 0 385.4336 256a56.9344 56.9344 0 0 0-5.5296 27.136c-14.9504 6.4512-29.9008 12.6976-44.2368 20.48a362.9056 362.9056 0 0 0-50.2784 33.0752c-1.6384 1.3312-3.4816 2.4576-5.2224 3.6864a4.608 4.608 0 0 1-3.7888-0.6144 49.664 49.664 0 0 0-30.72-5.3248 41.472 41.472 0 0 0-25.7024 12.1856c-2.4576 2.3552-2.2528 3.7888 0.6144 5.5296a69.9392 69.9392 0 0 1 20.48 17.6128c0.9216 1.3312 2.2528 2.4576 2.2528 4.1984-9.3184 10.24-18.1248 21.1968-26.624 32.1536-3.072-1.4336-3.2768-4.9152-5.2224-7.2704a42.9056 42.9056 0 0 0-3.4816-3.9936 35.0208 35.0208 0 0 0-12.4928-9.3184 5.2224 5.2224 0 0 1-3.584-3.1744c-0.512-10.24-1.7408-20.48-1.536-31.3344 0-6.0416 0-6.4512-6.3488-6.5536H174.08c-3.8912 0-5.7344 1.536-5.632 5.632a24.2688 24.2688 0 0 1-0.6144 8.8064c-1.2288 1.9456-2.048 1.024-2.6624 0a18.1248 18.1248 0 0 1 0-6.3488c0-6.5536 0-6.8608-6.7584-4.9152A73.5232 73.5232 0 0 0 135.7824 358.4a16.4864 16.4864 0 0 1-4.608 2.8672c-3.6864 0-5.8368-2.7648-8.0896-4.9152A177.7664 177.7664 0 0 0 102.4 338.7392a391.3728 391.3728 0 0 1 30.72-61.44 521.1136 521.1136 0 0 1 33.4848-47.8208 7.9872 7.9872 0 0 1 1.536-1.6384z" fill="#F6FCFE" p-id="2834"></path><path d="M952.32 554.2912a359.7312 359.7312 0 0 1-11.4688 65.3312 438.1696 438.1696 0 0 1-80.0768 161.792 407.9616 407.9616 0 0 1-57.856 60.6208c-1.9456-1.2288-2.1504-3.1744-2.4576-5.12-4.3008-26.3168-9.728-52.4288-14.9504-78.5408-1.9456-10.24-5.5296-18.944-7.5776-28.5696a35.1232 35.1232 0 0 1-1.3312-6.2464c0-2.56 2.2528-3.8912 3.7888-5.5296a258.3552 258.3552 0 0 0 37.9904-48.7424l2.8672-5.12a201.1136 201.1136 0 0 0 25.8048-81.92c0-1.6384 0-3.7888 2.2528-4.1984a10.24 10.24 0 0 0 9.0112 6.3488 93.0816 93.0816 0 0 0 24.9856 1.1264 48.128 48.128 0 0 0 29.696-16.0768A55.7056 55.7056 0 0 1 946.9952 552.96c1.9456 0 3.9936 0 5.3248 1.3312zM162.304 576.9216a270.0288 270.0288 0 0 0 5.12 36.4544 215.04 215.04 0 0 0 56.6272 102.4c4.1984 4.3008 8.8064 8.3968 13.1072 12.5952 1.7408 1.9456 0.8192 4.096 0 6.0416-2.9696 9.6256-4.9152 19.456-7.9872 29.0816-2.56 7.9872-2.6624 16.4864-4.7104 24.6784-3.3792 13.9264-5.632 28.0576-7.8848 42.1888a8.6016 8.6016 0 0 1-2.56 6.2464 437.76 437.76 0 0 1-102.4-136.192 430.592 430.592 0 0 1-37.5808-123.904 280.576 280.576 0 0 1-3.6864-32.256 27.9552 27.9552 0 0 1 20.48 0 51.2 51.2 0 0 1 28.16 16.384 66.4576 66.4576 0 0 0 28.9792 19.0464c1.9456 0.512 3.8912 0.8192 5.7344 1.4336a5.8368 5.8368 0 0 0 8.6016-4.1984z" fill="#5FC4FA" p-id="2835"></path><path d="M586.5472 944.7424a105.984 105.984 0 0 1-22.6304 2.8672 2.3552 2.3552 0 0 1-1.536-1.2288 129.024 129.024 0 0 0-27.136-31.744c-7.68-8.0896-16.384-15.1552-24.1664-23.2448-3.7888-3.8912-4.5056-3.7888-8.3968 0-12.8 12.288-26.4192 23.6544-39.1168 36.0448A59.8016 59.8016 0 0 0 450.56 944.128c0 1.024-0.8192 2.2528-2.048 2.56a406.1184 406.1184 0 0 1-77.7216-18.6368 6.4512 6.4512 0 0 1 0-4.8128 388.5056 388.5056 0 0 1 28.8768-81.92 28.8768 28.8768 0 0 1 16.4864-15.1552 142.2336 142.2336 0 0 1 31.5392-7.9872 158.4128 158.4128 0 0 1 44.7488-1.1264 27.0336 27.0336 0 0 1 5.3248 0.9216 136.0896 136.0896 0 0 1 53.0432 18.8416 56.32 56.32 0 0 1 21.504 27.5456 177.2544 177.2544 0 0 1 14.2336 70.0416c0.2048 3.2768 2.1504 6.8608 0 10.3424z" fill="#FA665A" p-id="2836"></path><path d="M777.5232 721.92c2.2528 9.3184 6.0416 18.3296 7.8848 27.7504 4.9152 25.4976 11.0592 51.2 14.7456 76.3904 0.7168 5.3248 1.9456 10.24 2.8672 15.872a324.096 324.096 0 0 1-39.8336 31.232 366.7968 366.7968 0 0 1-55.1936 32.1536c-2.7648-0.512-1.8432-2.7648-1.7408-4.3008 0.9216-13.4144 2.6624-26.8288 3.6864-40.2432 1.2288-16.0768 2.3552-32.0512 3.4816-48.128 0.7168-10.24 0.512-20.48 1.6384-30.72a83.7632 83.7632 0 0 0 0-15.2576 351.3344 351.3344 0 0 0 0-46.6944 332.4928 332.4928 0 0 0-6.656-71.0656 98.6112 98.6112 0 0 0-7.0656-22.016c-7.3728-15.6672-18.8416-18.432-32.6656-8.0896-3.584 2.6624-6.9632 5.5296-10.24 8.3968-1.7408 1.4336-4.096 3.072-4.8128-1.024a17.2032 17.2032 0 0 0 3.6864-7.3728A56.7296 56.7296 0 0 1 681.472 604.16a44.1344 44.1344 0 0 1 44.8512 12.288 135.5776 135.5776 0 0 1 28.16 40.2432 391.0656 391.0656 0 0 1 22.528 59.2896 7.5776 7.5776 0 0 1 0.512 5.9392zM214.528 836.4032c1.4336-9.5232 2.6624-19.1488 4.5056-28.5696s5.12-21.2992 6.7584-32.1536c2.3552-15.36 7.8848-29.696 11.1616-44.7488v-2.8672c3.7888-11.3664 7.3728-22.7328 11.264-34.0992a355.4304 355.4304 0 0 1 18.6368-42.9056c0.6144-0.8192 0-1.9456 0.7168-2.8672a83.7632 83.7632 0 0 1 40.3456-40.3456 40.0384 40.0384 0 0 1 27.0336-0.6144 57.0368 57.0368 0 0 1 23.8592 15.2576c-0.9216 3.2768 1.7408 5.2224 2.9696 7.68-2.8672 2.9696-4.8128 0-6.656-1.3312a68.7104 68.7104 0 0 0-12.9024-10.24 17.1008 17.1008 0 0 0-26.0096 6.656 94.5152 94.5152 0 0 0-11.1616 33.9968 254.976 254.976 0 0 0-4.4032 43.52c0 3.4816-1.024 6.8608-0.9216 10.24v55.808a180.5312 180.5312 0 0 0 1.1264 19.6608c0.8192 20.48 1.7408 39.936 3.4816 59.904 1.3312 15.36 2.6624 30.72 4.096 46.08A6.7584 6.7584 0 0 1 307.2 901.12a389.12 389.12 0 0 1-58.88-36.5568 325.9392 325.9392 0 0 1-33.792-28.16z" fill="#57B2FE" p-id="2837"></path><path d="M586.5472 944.7424a307.2 307.2 0 0 0-5.9392-52.0192 102.4 102.4 0 0 0-23.2448-49.664A71.68 71.68 0 0 0 532.48 828.6208a120.0128 120.0128 0 0 0-33.9968-9.4208c-1.1264-2.7648 0.8192-3.4816 2.7648-4.096a21.504 21.504 0 0 1 6.3488 0 430.7968 430.7968 0 0 0 96.5632-9.9328 20.48 20.48 0 0 1 7.2704-0.8192 10.24 10.24 0 0 1 5.4272 4.096 403.968 403.968 0 0 1 52.9408 80.6912c3.6864 7.3728 6.9632 14.848 10.24 22.528 0.7168 1.8432 2.4576 3.6864 1.024 5.9392a427.7248 427.7248 0 0 1-92.8768 27.2384 10.24 10.24 0 0 1-1.6384-0.1024z" fill="#EE4C4C" p-id="2838"></path><path d="M681.3696 917.504a395.3664 395.3664 0 0 0-68.3008-112.0256c0.9216-3.1744 3.8912-2.7648 6.0416-3.2768a404.2752 404.2752 0 0 0 62.8736-20.48c9.5232-3.9936 18.8416-8.6016 28.16-13.2096 1.8432-0.9216 3.584-2.4576 5.9392-1.6384a41.7792 41.7792 0 0 1 0.512 17.408c0 1.7408 0 3.584-0.512 5.3248 0 20.48-2.2528 40.96-3.7888 61.44-0.9216 12.6976-2.3552 25.3952-3.1744 38.1952 0 4.5056-1.024 9.1136-1.6384 13.6192 0 1.024 0 1.9456 0.6144 2.6624a232.7552 232.7552 0 0 1-26.7264 11.9808zM307.2 901.12c0-10.24-1.6384-20.48-2.7648-30.72s-1.536-19.2512-2.1504-28.8768c-1.3312-20.48-2.56-40.96-3.1744-60.7232 0-3.6864-0.9216-7.4752-0.7168-11.264a62.1568 62.1568 0 0 1 14.848 6.2464 401.2032 401.2032 0 0 0 81.1008 27.2384c1.9456 0 3.8912 0.6144 5.12 2.56s-1.8432 4.096-3.2768 5.8368a386.8672 386.8672 0 0 0-59.1872 95.8464c-0.9216 2.2528-1.4336 4.8128-3.9936 6.0416A197.2224 197.2224 0 0 1 307.2 901.12z" fill="#5FC4FA" p-id="2839"></path><path d="M171.7248 497.8688c-2.1504 11.6736-5.8368 23.04-7.168 34.816 0 2.2528-0.8192 4.5056-1.1264 6.656a11.0592 11.0592 0 0 1-8.6016 0.8192A61.44 61.44 0 0 1 121.2416 522.24a99.7376 99.7376 0 0 0-16.5888-13.9264 49.9712 49.9712 0 0 0-30.72-6.3488c-3.072 0-2.9696 2.3552-3.1744 4.608s1.2288 7.5776-1.4336 10.9568a55.9104 55.9104 0 0 1-0.6144-17.5104c0-10.24 1.1264-20.48 1.8432-30.72a333.1072 333.1072 0 0 1 7.8848-52.9408 36.5568 36.5568 0 0 1 22.2208 3.4816c3.9936 1.7408 3.1744 5.632 3.9936 8.8064s0.9216 3.9936 1.3312 6.0416a74.9568 74.9568 0 0 0 56.7296 59.8016c2.3552 0.7168 4.8128 0.8192 7.168 1.6384a3.584 3.584 0 0 1 1.8432 1.7408z" fill="#19AAF2" p-id="2840"></path><path d="M794.0096 339.2512A38.2976 38.2976 0 0 1 817.2544 296.96a37.6832 37.6832 0 0 1 48.64 19.0464c8.2944 17.7152 16.2816 35.5328 24.3712 53.248 0.6144 1.3312 1.3312 2.56 2.048 3.8912 3.7888 3.072 4.4032 7.9872 6.4512 12.0832 2.9696 6.0416 5.8368 12.1856 8.2944 18.432a15.2576 15.2576 0 0 1-4.9152 17.5104 16.1792 16.1792 0 0 1-19.968 0.8192 40.1408 40.1408 0 0 1-7.68-13.0048 49.0496 49.0496 0 0 0-2.9696-6.2464 7.5776 7.5776 0 0 0-10.24-3.2768 7.0656 7.0656 0 0 0-3.3792 9.216 95.744 95.744 0 0 0 5.12 11.776 25.088 25.088 0 0 1 3.1744 10.24 15.9744 15.9744 0 0 1-12.288 15.7696 15.7696 15.7696 0 0 1-18.5344-9.4208c-6.3488-13.5168-12.3904-27.136-18.7392-40.96s-13.5168-29.5936-20.48-44.4416c-0.8192-4.4032-3.4816-7.8848-2.1504-12.3904z" fill="#FEA736" p-id="2841"></path><path d="M946.5856 421.5808a281.3952 281.3952 0 0 1 5.7344 40.448c0.6144 3.6864-2.1504 4.096-4.5056 4.3008a53.3504 53.3504 0 0 0-30.72 14.0288 45.056 45.056 0 0 0-5.8368 6.0416 48.64 48.64 0 0 1-47.2064 18.3296 66.9696 66.9696 0 0 1-23.7568-5.9392 7.0656 7.0656 0 0 1-2.7648-4.5056 269.2096 269.2096 0 0 0-20.48-49.5616 10.8544 10.8544 0 0 1-2.1504-6.4512c2.56-2.8672 4.096 0 5.632 1.1264a74.8544 74.8544 0 0 0 23.6544 14.9504 76.1856 76.1856 0 0 0 25.6 4.5056 45.7728 45.7728 0 0 1 8.3968 0 5.7344 5.7344 0 0 1 3.2768 2.7648 8.0896 8.0896 0 0 0 9.6256 3.8912c3.8912-1.2288 5.5296-4.3008 5.4272-9.3184a9.216 9.216 0 0 1 0-2.4576c2.1504-4.7104 6.9632-6.8608 10.24-10.24a75.6736 75.6736 0 0 1 18.3296-16.2816 34.4064 34.4064 0 0 1 21.504-5.632zM952.32 554.2912a53.5552 53.5552 0 0 0-37.4784 14.9504 51.2 51.2 0 0 1-30.72 17.2032 89.7024 89.7024 0 0 1-31.4368-2.7648c-3.8912-1.024-2.7648-3.8912-3.1744-6.2464a4.608 4.608 0 0 1-1.3312-3.584c0-10.24 0-20.48-1.024-30.0032a9.4208 9.4208 0 0 1 0.512-3.8912c1.4336-2.7648 3.6864-1.4336 5.632-1.024a84.6848 84.6848 0 0 0 31.3344 2.048A44.3392 44.3392 0 0 0 911.36 524.8a56.6272 56.6272 0 0 1 35.7376-20.48c2.4576 0 5.5296-2.048 7.68 1.024a1.6384 1.6384 0 0 1 0 0.9216 38.8096 38.8096 0 0 0 0 10.9568 289.1776 289.1776 0 0 1-2.4576 37.0688z" fill="#11A9F6" p-id="2842"></path><path d="M955.1872 504.832a48.8448 48.8448 0 0 0-32.256 10.9568c-7.2704 5.4272-12.1856 13.2096-19.456 18.7392a41.5744 41.5744 0 0 1-23.552 8.8064 87.1424 87.1424 0 0 1-31.5392-3.8912c-2.56 0-2.048-2.6624-2.2528-4.1984a193.6384 193.6384 0 0 0-4.5056-25.088c0-3.9936-3.072-7.68-1.4336-11.9808a158.208 158.208 0 0 0 22.8352 5.2224 48.8448 48.8448 0 0 0 47.7184-18.0224 52.224 52.224 0 0 1 36.4544-20.48c2.3552 0 4.7104 0 5.3248-3.1744a37.4784 37.4784 0 0 1 1.3312 12.4928 244.5312 244.5312 0 0 1 1.3312 30.6176z" fill="#5FC4FA" p-id="2843"></path><path d="M448.6144 946.688A35.5328 35.5328 0 0 1 460.8 928.4608c13.824-13.5168 28.4672-26.0096 42.7008-39.0144 2.7648-2.56 4.5056-3.072 7.5776 0 14.6432 14.336 29.7984 28.16 44.032 43.008a41.5744 41.5744 0 0 1 9.216 15.2576 37.7856 37.7856 0 0 1-14.5408 2.2528h-5.3248c-4.608 1.3312-9.3184 0-13.9264 0.9216a164.7616 164.7616 0 0 1-36.5568 0 33.3824 33.3824 0 0 0-12.9024 0 120.5248 120.5248 0 0 0-16.9984-1.8432c-5.3248-1.1264-10.4448-1.024-15.4624-2.3552z" fill="#F2F1F1" p-id="2844"></path><path d="M333.312 913.408a399.36 399.36 0 0 1 58.88-98.5088c2.3552-2.8672 4.9152-5.632 7.3728-8.4992a6.2464 6.2464 0 0 1 6.0416-1.024 78.848 78.848 0 0 1 17.5104 4.5056 63.5904 63.5904 0 0 0 15.872 2.8672l6.7584 1.024c1.536 0 3.6864 0 4.096 1.9456s-1.6384 2.56-2.9696 3.4816A121.2416 121.2416 0 0 0 409.6 830.2592a12.6976 12.6976 0 0 0-5.7344 5.12 333.1072 333.1072 0 0 0-26.5216 67.072c-2.3552 8.4992-4.608 16.9984-6.8608 25.6a290.4064 290.4064 0 0 1-37.1712-14.6432z" fill="#E94949" p-id="2845"></path><path d="M69.12 517.8368v-13.312c0-2.7648 1.024-3.4816 3.6864-3.7888a53.9648 53.9648 0 0 1 46.3872 18.0224 61.44 61.44 0 0 0 35.2256 20.48 83.0464 83.0464 0 0 0 8.8064 0.512c-0.6144 12.4928-1.536 24.9856-1.024 37.4784 0 6.4512 0 6.0416-6.7584 5.2224a61.44 61.44 0 0 1-36.2496-20.48 54.272 54.272 0 0 0-29.0816-17.3056 51.2 51.2 0 0 0-19.8656-0.7168 156.2624 156.2624 0 0 1-1.1264-26.112z" fill="#11A9F6" p-id="2846"></path><path d="M946.5856 421.5808a59.0848 59.0848 0 0 0-37.0688 21.504c-3.584 4.096-7.7824 7.4752-11.6736 11.1616-1.9456 0-2.3552-1.6384-2.8672-2.8672-4.096-9.0112-8.2944-17.92-12.1856-26.9312-0.512-1.3312-1.6384-2.6624 0-4.096A14.7456 14.7456 0 0 0 901.12 419.84a14.0288 14.0288 0 0 0 5.2224-16.9984 62.1568 62.1568 0 0 1 27.136-22.2208 3.072 3.072 0 0 1 3.6864 0 245.1456 245.1456 0 0 1 9.4208 40.96z" fill="#5FC4FA" p-id="2847"></path><path d="M794.0096 339.2512c5.7344 16.5888 14.1312 32.0512 21.0944 48.128 1.1264 2.56 2.3552 5.0176 3.4816 7.5776-2.6624 1.024-3.8912-1.2288-5.5296-2.4576a53.1456 53.1456 0 0 0-26.2144-12.9024c-4.608-0.512-9.216 0-13.7216-1.3312l-28.7744-28.0576A46.7968 46.7968 0 0 1 788.48 337.92c2.048 0 3.7888 0.9216 5.5296 1.3312zM936.6528 381.1328a40.96 40.96 0 0 0-18.6368 10.24c-4.1984 3.584-8.0896 7.68-12.0832 11.5712-4.7104-10.24-9.6256-19.968-13.6192-30.72a48.9472 48.9472 0 0 0 15.9744-12.0832A136.0896 136.0896 0 0 1 921.6 348.16c1.7408-1.4336 3.072-2.2528 4.1984 0.9216a326.2464 326.2464 0 0 1 10.8544 32.0512zM102.4 338.7392a39.3216 39.3216 0 0 1 13.9264 9.6256c4.9152 4.3008 9.6256 8.8064 14.4384 13.312 0 2.9696-3.1744 3.8912-4.7104 5.8368a160.256 160.256 0 0 0-10.24 14.1312c-0.9216 1.4336-1.7408 3.1744-3.6864 3.7888-7.2704-3.7888-14.7456-7.168-22.2208-10.24 2.2528-12.4928 7.5776-24.3712 12.4928-36.4544z" fill="#11A9F6" p-id="2848"></path><path d="M89.1904 375.0912a48.3328 48.3328 0 0 1 22.4256 10.24c1.2288 2.6624-0.512 4.7104-1.4336 6.9632a66.56 66.56 0 0 0-4.8128 19.968v12.288a6.656 6.656 0 0 1-1.536 5.4272c0-8.4992-6.4512-9.728-12.9024-11.3664-4.1984-1.1264-8.6016 0-12.5952-1.536a257.8432 257.8432 0 0 1 10.8544-41.984z" fill="#5FC4FA" p-id="2849"></path><path d="M530.1248 950.784a39.6288 39.6288 0 0 1 13.9264-0.9216 40.0384 40.0384 0 0 1-13.9264 0.9216zM480.6656 950.784a17.6128 17.6128 0 0 1 12.9024 0z" fill="#F2F1F1" p-id="2850"></path><path d="M955.1872 516.7104a16.5888 16.5888 0 0 1 0-10.9568z" fill="#5FC4FA" p-id="2851"></path><path d="M358.4 623.8208c-20.48-20.48-46.2848-23.9616-69.2224-2.1504a157.2864 157.2864 0 0 0-22.016 29.4912 132.3008 132.3008 0 0 1-2.7648-60.1088A192.4096 192.4096 0 0 1 329.216 481.28a262.2464 262.2464 0 0 1 89.1904-52.4288 271.5648 271.5648 0 0 1 65.3312-14.336 277.7088 277.7088 0 0 1 134.7584 19.8656 257.4336 257.4336 0 0 1 87.4496 58.88 201.1136 201.1136 0 0 1 41.6768 61.44c0.6144 1.3312 1.3312 2.6624 1.9456 3.8912a65.1264 65.1264 0 0 1 8.192 23.04 139.0592 139.0592 0 0 1 4.096 29.184 133.12 133.12 0 0 1-5.632 42.8032c0 1.4336-0.9216 2.8672-2.56 3.3792a199.5776 199.5776 0 0 0-19.6608-30.72 58.368 58.368 0 0 0-30.72-21.6064 46.1824 46.1824 0 0 0-40.96 12.0832l-3.7888 3.1744a6.656 6.656 0 0 1-5.0176-1.536 107.9296 107.9296 0 0 0-47.104-13.4144c-2.048 0-5.4272-0.6144-5.4272 1.8432s3.4816 2.3552 5.5296 2.2528a90.2144 90.2144 0 0 1 41.7792 10.24c2.6624 1.3312 5.9392 2.3552 6.656 5.9392s1.7408 2.7648 3.6864 1.1264c3.6864-3.1744 7.3728-6.5536 11.264-9.5232a19.5584 19.5584 0 0 1 32.5632 7.168 109.3632 109.3632 0 0 1 10.24 35.7376 363.2128 363.2128 0 0 1 4.608 59.392 100.352 100.352 0 0 1-22.016 21.8112 271.5648 271.5648 0 0 1-111.616 51.2 318.1568 318.1568 0 0 1-85.8112 7.7824 301.2608 301.2608 0 0 1-152.6784-46.6944A219.4432 219.4432 0 0 1 301.6704 716.8a6.7584 6.7584 0 0 1-2.2528-4.3008 311.0912 311.0912 0 0 1 2.7648-39.7312 171.3152 171.3152 0 0 1 7.5776-35.0208 45.6704 45.6704 0 0 1 10.24-18.6368 15.4624 15.4624 0 0 1 16.384-3.7888 51.2 51.2 0 0 1 20.48 13.5168c2.4576 2.3552 2.4576 2.3552 4.7104 0.6144 0-2.3552 2.2528-3.1744 3.8912-4.096a94.1056 94.1056 0 0 1 43.3152-12.0832c2.3552 0 6.4512 0.9216 6.4512-1.6384s-3.9936-1.4336-6.2464-1.4336a95.6416 95.6416 0 0 0-44.8512 11.9808c-1.7408 0.7168-3.2768 2.4576-5.7344 1.6384z" fill="#F9E7DA" p-id="2852"></path><path d="M753.5616 656.9984a134.5536 134.5536 0 0 0 5.5296-59.1872 205.824 205.824 0 0 0-9.6256-38.6048 68.4032 68.4032 0 0 0 12.4928-22.1184 220.16 220.16 0 0 0 16.896-53.3504 225.28 225.28 0 0 0 4.3008-55.296 102.4 102.4 0 0 0-7.68-40.2432c-1.024-2.048-2.7648-4.608-0.7168-7.168 2.56 0 3.7888 1.8432 5.12 3.4816a366.08 366.08 0 0 1 32.9728 46.1824 19.2512 19.2512 0 0 1 3.1744 7.68 324.096 324.096 0 0 1 24.4736 59.6992l2.7648 11.776a14.848 14.848 0 0 1-3.072 6.0416 143.9744 143.9744 0 0 0-27.7504 85.7088 174.08 174.08 0 0 0 9.0112 57.6512 10.8544 10.8544 0 0 1 0.9216 5.7344 221.184 221.184 0 0 1-44.6464 56.832 480.4608 480.4608 0 0 0-24.1664-64.8192z" fill="#F55954" p-id="2853"></path><path d="M209.8176 394.752a42.3936 42.3936 0 0 1 7.68 11.8784 394.752 394.752 0 0 0-28.5696 47.5136 52.9408 52.9408 0 0 1-21.4016 3.7888 33.1776 33.1776 0 0 1-21.504-16.5888 22.1184 22.1184 0 0 1-2.9696-6.7584 37.9904 37.9904 0 0 1-0.512-24.9856 2.56 2.56 0 0 1 1.024-1.024 81.92 81.92 0 0 0 31.5392 3.1744 52.9408 52.9408 0 0 0 32.3584-15.0528 6.9632 6.9632 0 0 1 2.3552-1.9456zM815.9232 438.3744a352.9728 352.9728 0 0 0-35.328-51.2c-1.9456-2.2528-3.9936-4.4032-5.9392-6.5536L773.12 378.88a47.5136 47.5136 0 0 1 37.6832 10.24c2.56 2.048 5.2224 3.8912 7.7824 5.8368l18.0224 39.424a14.848 14.848 0 0 0 28.8768-4.3008c1.6384 0 1.9456 1.024 2.3552 1.9456 3.9936 8.0896 7.68 16.384 11.264 24.6784 0.512 1.2288 1.1264 2.4576 0 3.6864a85.2992 85.2992 0 0 1-38.0928-5.7344 82.944 82.944 0 0 1-20.8896-14.336c-0.9216-1.024-1.8432-3.584-4.1984-1.9456z" fill="#5FC4FA" p-id="2854"></path><path d="M244.1216 374.4768a86.4256 86.4256 0 0 0-26.8288-22.7328c-1.8432-0.9216-2.048-1.6384-0.6144-3.1744a47.0016 47.0016 0 0 1 37.376-15.4624 51.2 51.2 0 0 1 26.112 7.68c-12.4928 10.752-24.1664 21.9136-36.0448 33.6896z" fill="#11A9F6" p-id="2855"></path><path d="M171.7248 497.8688h-1.8432a13.6192 13.6192 0 0 1-1.7408-7.5776 138.24 138.24 0 0 1 0-31.3344 2.1504 2.1504 0 0 1 1.9456-1.2288 133.12 133.12 0 0 1 15.6672 1.9456c-5.12 12.3904-9.8304 25.1904-14.0288 38.1952z" fill="#FCCBA8" p-id="2856"></path><path d="M186.1632 459.4688c-5.8368 2.1504-11.3664-0.9216-17.1008-1.2288-1.1264 0-1.6384 0-1.8432-1.1264l21.7088-2.9696a12.5952 12.5952 0 0 1-2.7648 5.3248z" fill="#19AAF2" p-id="2857"></path><path d="M104.0384 410.624a82.5344 82.5344 0 0 1 7.5776-25.6 84.992 84.992 0 0 1 18.7392-23.3472 75.0592 75.0592 0 0 1 30.72-16.0768c4.096-1.1264 5.9392-0.7168 5.632 4.1984a21.0944 21.0944 0 0 0 0.6144 10.24 4.8128 4.8128 0 0 1 1.7408 4.4032 133.8368 133.8368 0 0 1 0 17.7152 5.12 5.12 0 0 1-3.2768 3.3792 37.7856 37.7856 0 0 0-19.456 20.48 5.5296 5.5296 0 0 1-2.048 2.6624 4.096 4.096 0 0 1-2.9696 1.4336c-13.2096 0.4096-25.1904 0-37.2736 0.512z" fill="#FEFEFE" p-id="2858"></path><path d="M143.36 408.7808a37.4784 37.4784 0 0 1 23.7568-24.9856 27.5456 27.5456 0 0 1 26.3168 0 36.0448 36.0448 0 0 1 16.1792 11.1616 37.6832 37.6832 0 0 1-20.48 14.848 71.68 71.68 0 0 1-42.8032 1.1264 14.336 14.336 0 0 1-2.9696-2.1504z" fill="#11A9F6" p-id="2859"></path><path d="M193.6384 383.5904a44.032 44.032 0 0 0-26.3168 0v-23.4496-11.8784c0-3.9936 0.8192-4.8128 3.9936-4.8128h19.2512c2.1504 0 2.7648 1.1264 2.8672 3.072-0.3072 12.3904 0 24.7808 0.2048 37.0688z" fill="#FEAD6F" p-id="2860"></path><path d="M822.1696 665.088a135.4752 135.4752 0 0 1-10.24-36.864A157.0816 157.0816 0 0 1 819.2 552.96a137.1136 137.1136 0 0 1 23.9616-42.7008 131.2768 131.2768 0 0 1 4.5056 25.9072c0 1.2288 0 2.6624 0.9216 3.6864 0 12.8 1.6384 25.6 1.024 38.5024-0.9216 7.0656-1.6384 14.2336-2.9696 21.2992a193.6384 193.6384 0 0 1-24.4736 65.4336z" fill="#F5F5F5" p-id="2861"></path><path d="M299.3152 712.4992a240.3328 240.3328 0 0 0 41.8816 37.376 282.0096 282.0096 0 0 0 107.4176 43.7248 316.6208 316.6208 0 0 0 73.1136 5.7344 291.328 291.328 0 0 0 172.8512-59.2896c8.0896-6.2464 15.1552-13.6192 22.528-20.48a415.5392 415.5392 0 0 1 0 43.3152 5.3248 5.3248 0 0 1-1.024 4.1984 424.3456 424.3456 0 0 1-63.0784 27.0336c-12.4928 4.096-25.088 7.4752-37.7856 10.24a11.4688 11.4688 0 0 0-2.1504 1.024 215.04 215.04 0 0 0-23.04 4.096c-11.9808 2.2528-24.1664 3.4816-36.2496 4.9152a428.8512 428.8512 0 0 1-51.2 1.8432c-2.1504 0-3.9936 0-4.1984 2.9696a130.1504 130.1504 0 0 0-38.4-1.2288c-4.3008 0.512-8.704 0.8192-13.1072 1.2288l2.56-3.4816-20.48-2.8672c-7.68-1.1264-14.5408-5.3248-22.4256-5.9392h-7.2704a71.68 71.68 0 0 0-17.2032-4.8128 403.7632 403.7632 0 0 1-79.0528-29.184c-1.6384-0.8192-3.072-1.8432-4.608-2.7648v-51.2c0.512-2.1504 0.8192-4.5056 0.9216-6.4512z" fill="#F55954" p-id="2862"></path><path d="M654.4384 625.5616A74.3424 74.3424 0 0 0 624.64 612.6592a78.848 78.848 0 0 0-21.9136-2.4576c-2.3552 0-5.2224 0-5.2224-2.9696s2.7648-3.1744 5.2224-3.072a102.4 102.4 0 0 1 54.9888 15.9744c2.3552 3.7888-0.4096 4.5056-3.2768 5.4272z" fill="#2F1C1C" p-id="2863"></path><path d="M358.4 623.8208a100.2496 100.2496 0 0 1 53.1456-15.2576c2.4576 0 6.5536-1.4336 6.3488 2.9696s-3.7888 2.7648-6.2464 2.8672a91.2384 91.2384 0 0 0-50.0736 15.0528c-4.7104-0.8192-5.2224-1.6384-3.1744-5.632z" fill="#2E1B1B" p-id="2864"></path><path d="M167.2192 457.1136l1.8432 1.1264q0 19.6608 0.7168 39.3216a77.4144 77.4144 0 0 1-64.512-58.88 28.5696 28.5696 0 0 1 0-3.3792 5.12 5.12 0 0 1 3.6864-1.2288c10.24 0 20.48-1.6384 30.1056-1.1264a7.2704 7.2704 0 0 1 5.5296 1.6384 37.0688 37.0688 0 0 0 22.6304 22.528z" fill="#FEFEFE" p-id="2865"></path><path d="M144.2816 434.688c-13.1072-0.512-26.2144 1.4336-39.3216 0.6144l-1.2288-5.2224v-19.0464a14.6432 14.6432 0 0 1 8.0896-1.7408h30.72a51.2 51.2 0 0 0 1.7408 25.3952z" fill="#FEAD6F" p-id="2866"></path><path d="M847.7696 432.5376a10.24 10.24 0 0 1-7.7824-5.2224c-6.2464-13.6192-12.5952-27.136-18.7392-40.96q-8.192-17.92-16.0768-35.9424a8.704 8.704 0 0 1 3.7888-11.5712 7.9872 7.9872 0 0 1 11.3664 4.4032c7.8848 16.896 15.6672 33.9968 23.4496 51.2 4.096 8.9088 8.192 17.92 12.0832 26.9312a8.704 8.704 0 0 1-8.0896 11.1616zM890.1632 412.7744a7.9872 7.9872 0 0 1-8.2944-5.3248c-9.0112-20.48-18.432-40.3456-27.5456-60.5184-2.4576-5.3248-4.9152-10.752-7.168-16.1792a8.4992 8.4992 0 0 1 3.6864-10.9568 8.3968 8.3968 0 0 1 11.1616 3.3792 105.7792 105.7792 0 0 1 4.8128 10.24l21.9136 47.9232c2.9696 6.4512 5.9392 12.8 8.6016 19.3536s-0.512 12.0832-7.168 12.0832zM825.0368 307.9168a6.4512 6.4512 0 0 1 7.0656 4.608q13.824 30.72 27.5456 61.44c2.3552 5.3248 0.8192 8.8064-4.8128 11.4688a7.0656 7.0656 0 0 1-10.24-4.3008q-14.1312-30.72-27.9552-60.8256c-3.072-6.8608 0.9216-12.288 8.3968-12.3904z" fill="#FEB85E" p-id="2867"></path><path d="M879.4112 460.1856q-6.2464-15.4624-13.824-30.72a78.848 78.848 0 0 0-7.5776-19.1488c-2.3552-6.144-1.3312-10.8544 3.3792-13.1072s9.6256 0 12.3904 6.2464a67.9936 67.9936 0 0 0 8.704 16.4864q7.168 17.2032 15.4624 33.9968a9.6256 9.6256 0 0 1-11.9808 12.8c-3.4816-0.8192-5.3248-3.7888-6.5536-6.5536z" fill="#863817" p-id="2868"></path><path d="M618.9056 733.0816a32.3584 32.3584 0 0 1-22.2208 23.6544 147.2512 147.2512 0 0 1-46.2848 10.24 325.9392 325.9392 0 0 1-40.2432 1.7408 247.1936 247.1936 0 0 1-73.8304-9.6256 51.2 51.2 0 0 1-22.016-13.4144 23.1424 23.1424 0 0 1-6.4512-13.4144 74.6496 74.6496 0 0 1 59.4944-30.0032 108.7488 108.7488 0 0 1 35.0208 4.7104 18.8416 18.8416 0 0 0 11.1616 0 121.856 121.856 0 0 1 34.5088-5.5296A98.816 98.816 0 0 1 593.92 712.6016a106.1888 106.1888 0 0 1 19.3536 13.6192 16.5888 16.5888 0 0 1 5.632 6.8608z" fill="#FC7485" p-id="2869"></path><path d="M618.9056 733.0816a126.3616 126.3616 0 0 0-24.064-18.5344 100.5568 100.5568 0 0 0-40.3456-11.264 131.3792 131.3792 0 0 0-42.5984 5.632 14.5408 14.5408 0 0 1-8.192 0 111.8208 111.8208 0 0 0-36.352-5.2224 73.5232 73.5232 0 0 0-55.808 25.9072c-1.024 1.2288-1.9456 2.7648-3.8912 2.7648a43.8272 43.8272 0 0 1 7.4752-29.0816 114.8928 114.8928 0 0 1 92.16-57.1392 109.7728 109.7728 0 0 1 83.0464 30.72A96.9728 96.9728 0 0 1 614.4 709.12a40.96 40.96 0 0 1 4.5056 23.9616z" fill="#D72E2E" p-id="2870"></path><path d="M692.3264 687.7184a25.4976 25.4976 0 0 1-13.0048-3.9936 7.3728 7.3728 0 0 1 0-12.9024 23.1424 23.1424 0 0 1 24.9856 0 7.2704 7.2704 0 0 1 0 12.9024 24.6784 24.6784 0 0 1-11.9808 3.9936zM319.5904 687.7184a26.8288 26.8288 0 0 1-12.1856-3.072 7.68 7.68 0 0 1 0-14.336 23.6544 23.6544 0 0 1 21.7088-0.7168 8.3968 8.3968 0 0 1 6.0416 7.5776 8.0896 8.0896 0 0 1-5.8368 8.0896 28.4672 28.4672 0 0 1-9.728 2.4576z" fill="#F090AF" p-id="2871"></path></svg>