<?xml version="1.0" standalone="no"?><!DOCTYPE svg PUBLIC "-//W3C//DTD SVG 1.1//EN" "http://www.w3.org/Graphics/SVG/1.1/DTD/svg11.dtd"><svg t="1646062948762" class="icon" viewBox="0 0 1024 1024" version="1.1" xmlns="http://www.w3.org/2000/svg" p-id="9233" xmlns:xlink="http://www.w3.org/1999/xlink" width="200" height="200"><defs><style type="text/css"></style></defs><path d="M261.936476 336.903146h500.116399v168.548647H261.936476z" fill="#FFDA71" p-id="9234"></path><path d="M501.754782 522.04042h20.479787v141.515329h-20.479787z" fill="#FFBE2C" p-id="9235"></path><path d="M511.994675 363.936465a163.838296 163.838296 0 0 1 162.404711 141.515328H1023.989351A508.717909 508.717909 0 0 0 511.994675 0.010649 508.717909 508.717909 0 0 0 0 505.451793h349.589964A163.838296 163.838296 0 0 1 511.994675 363.936465z" fill="#ED4A4A" p-id="9236"></path><path d="M471.035101 505.451793a40.959574 40.34518 0 1 0 81.919148 0 40.959574 40.34518 0 1 0-81.919148 0Z" fill="#ED4A4A" p-id="9237"></path><path d="M481.274995 709.430472h61.439361V1024h-61.439361z" fill="#FFBE2C" p-id="9238"></path><path d="M507.898718 709.430472h20.479787V1024h-20.479787z" fill="#FFDA71" p-id="9239"></path><path d="M481.274995 648.400706h61.439361v60.824968h-61.439361zM491.514888 365.37005a149.502445 149.502445 0 0 1 40.959574 0V0.010649h-40.959574zM79.256776 235.5282q-10.854287 16.998223-20.479787 35.020436L368.636166 447.289198a162.404711 162.404711 0 0 1 24.370947-32.767659zM421.474017 390.969784a163.838296 163.838296 0 0 1 36.658818-18.022213l-184.318083-314.979124q-18.22701 9.420702-35.430031 20.479787zM565.856515 372.947571a163.838296 163.838296 0 0 1 36.658819 18.022213l182.884498-312.726348q-17.203021-10.854287-35.430032-20.479787zM944.732575 235.5282L630.77744 414.316741a162.404711 162.404711 0 0 1 24.575744 32.972457l309.859178-176.94536q-9.420702-17.817415-20.479787-34.815638z" fill="#DD3333" p-id="9240"></path></svg>